<?xml version="1.0" standalone="no"?>
<!DOCTYPE svg PUBLIC "-//W3C//DTD SVG 1.1//EN" "http://www.w3.org/Graphics/SVG/1.1/DTD/svg11.dtd" >
<svg>
<metadata>
Created by FontForge 20090914 at Fri Feb 24 03:43:55 2012
 By root
(R) &#38; (C)SEGA ENTERPRISES, LIMITED
</metadata>
<defs>
<font id="SEGA" horiz-adv-x="772" >
  <font-face 
    font-family="SEGA LOGO FONT"
    font-weight="400"
    font-stretch="normal"
    units-per-em="1000"
    panose-1="0 0 0 0 0 0 0 0 0 0"
    ascent="800"
    descent="-200"
    x-height="981"
    cap-height="981"
    bbox="-192 0 1224 981"
    underline-thickness="50"
    underline-position="-75"
    unicode-range="U+0020-U+E000"
  />
<missing-glyph horiz-adv-x="500" 
d="M381 394q0 37 -13.5 69t-35.5 55.5t-51.5 37t-60.5 13.5h-154v131h-66v-208h210q22 0 39.5 -8.5t29.5 -22.5t18.5 -31.5t6.5 -35.5v-219q0 -18 -6.5 -35.5t-18.5 -31.5t-29.5 -22.5t-39.5 -8.5h-210v-77h220q31 0 60.5 13.5t51.5 37t35.5 55.5t13.5 69v219zM283 294v88
q0 15 -5 31t-15 29t-25 21t-35 8h-203v-77h201q4 0 7.5 -4t3.5 -11v-8h-168v-77h239zM283 275h-239v-77h168v-8q0 -7 -3.5 -11t-7.5 -4h-201v-77h203q20 0 35 8t25 21t15 29t5 31v88z" />
    <glyph glyph-name=".notdef" horiz-adv-x="500" 
d="M381 394q0 37 -13.5 69t-35.5 55.5t-51.5 37t-60.5 13.5h-154v131h-66v-208h210q22 0 39.5 -8.5t29.5 -22.5t18.5 -31.5t6.5 -35.5v-219q0 -18 -6.5 -35.5t-18.5 -31.5t-29.5 -22.5t-39.5 -8.5h-210v-77h220q31 0 60.5 13.5t51.5 37t35.5 55.5t13.5 69v219zM283 294v88
q0 15 -5 31t-15 29t-25 21t-35 8h-203v-77h201q4 0 7.5 -4t3.5 -11v-8h-168v-77h239zM283 275h-239v-77h168v-8q0 -7 -3.5 -11t-7.5 -4h-201v-77h203q20 0 35 8t25 21t15 29t5 31v88z" />
    <glyph glyph-name="space" unicode=" " horiz-adv-x="195" 
 />
    <glyph glyph-name="a" unicode="a" horiz-adv-x="851" 
d="M304 117h415l-254 705q-3 10 -18 18t-29 8q-16 0 -29.5 -8t-16.5 -18l-289 -822h-133l309 872q7 21 20 40.5t32.5 35t46 24.5t60.5 9t60 -9t45.5 -24.5t32.5 -35t21 -40.5l309 -872h-582v117zM304 153v38l-64 -191h-121l275 797q2 6 9.5 10.5t14.5 4.5t15 -4.5t10 -10.5
l228 -644h-367zM418 524l-80 -252h163z" />
    <glyph glyph-name=".0098" unicode="b" horiz-adv-x="753" 
d="M391 846q42 0 75.5 -14t57.5 -39t37 -60t13 -76q0 -58 -24 -97t-69 -70q45 -30 69 -69t24 -97q0 -41 -13 -76t-37 -60t-57.5 -39t-75.5 -14h-391v-135h391q66 0 124 25t101 69t67.5 103t24.5 127q0 45 -18 87t-45 79q27 35 45 78t18 89q0 68 -24.5 127t-67.5 103t-101 69
t-124 25h-391v-135h391zM391 638h-391v-134h391q63 0 104.5 38t41.5 115t-41.5 115t-104.5 38h-391v-134h391q6 0 9 -6.5t3 -12.5t-3 -12.5t-9 -6.5zM391 305h-391v-134h391q63 0 104.5 38t41.5 115t-41.5 115t-104.5 38h-391v-134h391q6 0 9 -6.5t3 -12.5t-3 -12.5t-9 -6.5
z" />
    <glyph glyph-name=".0099" unicode="c" horiz-adv-x="696" 
d="M657 0h-379q-54 0 -104.5 23.5t-89 64t-61.5 96t-23 118.5v377q0 63 23 118.5t61.5 96t89 64t104.5 23.5h379v-133h-363q-38 0 -68 -15t-50.5 -39t-31.5 -54.5t-11 -60.5v-377q0 -30 11 -60.5t31.5 -54.5t50.5 -39t68 -15h363v-133zM325 302h332v-133h-350q-35 0 -61 14
t-43 36t-25.5 49.5t-8.5 53.5v337q0 26 8.5 53.5t25.5 49.5t43 36t61 14h350v-133h-332q-6 0 -12.5 -7t-6.5 -19v-325q0 -26 13 -26h6z" />
    <glyph glyph-name=".0100" unicode="d" horiz-adv-x="701" 
d="M399 133h-273v514h-126v-647h385q73 0 125.5 17t86.5 53.5t50 94t16 137.5v377q0 83 -16 140.5t-50 93.5t-86.5 52t-125.5 16h-385v-133h398q38 0 64.5 -10.5t43 -29.5t24 -45t7.5 -56v-433q0 -30 -7.5 -56t-24 -45t-42.5 -29.5t-64 -10.5zM349 679q12 0 19.5 -7t7.5 -19
v-325q0 -12 -7.5 -19t-19.5 -7h-22q-25 0 -25 26v319h-140v-478h224q35 0 57.5 6.5t35 21.5t17.5 38.5t5 58.5v393q0 26 -5 49t-18 40t-35.5 26.5t-57.5 9.5h-385v-133h349z" />
    <glyph glyph-name="e" unicode="e" horiz-adv-x="700" 
d="M0 679q0 63 23 118.5t61.5 96t89 64t104.5 23.5h379v-133h-363q-38 0 -68 -15t-50.5 -39t-31.5 -54.5t-11 -60.5v-377q0 -30 11 -60.5t31.5 -54.5t50.5 -39t68 -15h363v-133h-379q-54 0 -104.5 23.5t-89 64t-61.5 96t-23 118.5v377zM169 507v152q0 26 8.5 53.5t25.5 49.5
t43 36t61 14h350v-133h-347q-6 0 -12.5 -7t-6.5 -19v-14h290v-132h-412zM169 474h412v-133h-290v-13q0 -12 6.5 -19t12.5 -7h347v-133h-350q-35 0 -61 14t-43 36t-25.5 49.5t-8.5 53.5v152z" />
    <glyph glyph-name=".0102" unicode="f" horiz-adv-x="699" 
d="M0 679q0 63 23 118.5t61.5 96t89 64t104.5 23.5h379v-133h-363q-38 0 -68 -15t-50.5 -39t-31.5 -54.5t-11 -60.5v-679h-133v679zM169 507v152q0 26 8.5 53.5t25.5 49.5t43 36t61 14h350v-133h-347q-6 0 -12.5 -7t-6.5 -19v-14h290v-132h-412zM169 474h412v-133h-290v-341
h-122v474z" />
    <glyph glyph-name="g" unicode="g" 
d="M728 0h-450q-54 0 -104.5 23.5t-89 64t-61.5 96t-23 118.5v377q0 63 23 118.5t61.5 96t89 64t104.5 23.5h450v-133h-434q-38 0 -68 -15t-50.5 -39t-31.5 -54.5t-11 -60.5v-377q0 -30 11 -60.5t31.5 -54.5t50.5 -39t68 -15h322v374h-298v132h410v-639zM310 302h110
q7 0 10.5 6t3.5 13q0 8 -3.5 14t-10.5 6h-102v133h263v-305h-274q-35 0 -61 14t-43 36t-25.5 49.5t-8.5 53.5v337q0 26 8.5 53.5t25.5 49.5t43 36t61 14h421v-133h-418q-6 0 -12.5 -7t-6.5 -19v-325q0 -12 6.5 -19t12.5 -7z" />
    <glyph glyph-name=".0104" unicode="h" 
d="M169 474v-474h133v341h121v-341h133v474h-387zM169 510h387v471h-133v-338h-121v338h-133v-471zM592 0h133v981h-133v-981zM0 0h133v981h-133v-981z" />
    <glyph glyph-name=".0105" unicode="i" horiz-adv-x="450" 
d="M50 0v981h133v-981h-133zM219 0v981h133v-981h-133z" />
    <glyph glyph-name=".0106" unicode="j" horiz-adv-x="741" 
d="M558 981v-707q0 -30 -7.5 -56t-24 -45t-42.5 -29.5t-64 -10.5h-156q-38 0 -64 10.5t-42.5 29.5t-24 45t-7.5 56v233h238v132h-364v-337q0 -80 16.5 -137.5t51 -94t86.5 -53.5t124 -17h128q73 0 125.5 17t86.5 53.5t50 94t16 137.5v679h-126zM393 981v-653q0 -12 -3.5 -19
t-15.5 -7h-64q-12 0 -15.5 7t-3.5 19v13h73v133h-202v-180q0 -35 5 -58.5t17.5 -38.5t35 -21.5t57.5 -6.5h130q35 0 57.5 6.5t35 21.5t17.5 38.5t5 58.5v687h-129z" />
    <glyph glyph-name=".0107" unicode="k" horiz-adv-x="750" 
d="M0 0h133v981h-133v-981zM670 0h127l-326 490l326 491h-127l-326 -491zM310 507l315 474h-130l-193 -291v291h-133v-474h141zM169 0h133v290l193 -290h130l-315 471h-141v-471z" />
    <glyph glyph-name=".0108" unicode="l" horiz-adv-x="699" 
d="M657 0h-379q-54 0 -104.5 23.5t-89 64t-61.5 96t-23 118.5v679h133v-679q0 -30 11 -60.5t31.5 -54.5t50.5 -39t68 -15h363v-133zM325 302h332v-133h-350q-35 0 -61 14t-43 36t-25.5 49.5t-8.5 53.5v659h137v-653q0 -12 6.5 -18.5t12.5 -6.5v-1z" />
    <glyph glyph-name="m" unicode="m" horiz-adv-x="1171" 
d="M567 439l-143 383q-4 10 -17 18t-29 8q-14 0 -29 -8t-18 -18l-288 -822h-133l309 872q8 21 21 40.5t32.5 35t45.5 24.5t60 9t59 -9t44 -24.5t32.5 -35t23.5 -40.5l30 -60l30 60q11 21 24.5 40.5t32 35t43.5 24.5t59 9q33 0 59.5 -9t46 -24.5t33 -35t20.5 -40.5l309 -872
h-133l-288 822q-3 10 -18 18t-29 8q-16 0 -29 -8t-17 -18zM567 0l-189 504l-166 -504h-133l274 797q2 6 10 10.5t15 4.5t14.5 -4.5t9.5 -10.5l165 -455l165 455q2 6 9.5 10.5t14.5 4.5t15 -4.5t10 -10.5l274 -797h-128l-171 504z" />
    <glyph glyph-name=".0110" unicode="n" horiz-adv-x="729" 
d="M677 0v679q0 83 -16 140.5t-50 93.5t-86.5 52t-125.5 16h-399v-133h412q38 0 64.5 -10.5t43 -29.5t24 -45t7.5 -56v-707h126zM363 679q12 0 19.5 -7t7.5 -19v-653h125v687q0 26 -5 49t-18 40t-35.5 26.5t-57.5 9.5h-399v-133h363zM302 647h-140v-647h140v647zM126 0v647
h-126v-647h126z" />
    <glyph glyph-name=".0111" unicode="o" horiz-adv-x="727" 
d="M278 0h128q73 0 125.5 17t86.5 53.5t50 94t16 137.5v377q0 83 -16 140.5t-50 93.5t-86.5 52t-125.5 16h-128q-72 0 -124 -16t-86.5 -52t-51 -93.5t-16.5 -140.5v-377q0 -80 16.5 -137.5t51 -94t86.5 -53.5t124 -17zM342 133h-78q-38 0 -64 10.5t-42.5 29.5t-24 45
t-7.5 56v433q0 30 7.5 56t24 45t43 29.5t64.5 10.5h154q38 0 64.5 -10.5t43 -29.5t24 -45t7.5 -56v-433q0 -30 -7.5 -56t-24 -45t-42.5 -29.5t-64 -10.5h-78zM407 169q35 0 57.5 6.5t35 21.5t17.5 38.5t5 58.5v393q0 26 -5 49t-18 40t-35.5 26.5t-57.5 9.5h-64h-64
q-35 0 -57.5 -9.5t-35.5 -26.5t-18 -40t-5 -49v-393q0 -35 5 -58.5t17.5 -38.5t35 -21.5t57.5 -6.5h130zM310 302q-12 0 -15.5 7t-3.5 19v325q0 12 3.5 19t15.5 7h64q12 0 15.5 -7t3.5 -19v-325q0 -12 -3.5 -19t-15.5 -7h-64z" />
    <glyph glyph-name=".0112" unicode="p" horiz-adv-x="713" 
d="M169 0h133v333h89q66 0 124 25t100.5 69t67.5 103t25 127t-24.5 127t-67.5 103t-101 69t-124 25h-391v-135h391q42 0 75.5 -14t57.5 -39t37 -60t13 -76t-13 -76t-37 -60t-57.5 -39t-75.5 -14h-222v-468zM0 0h133v504h258q63 0 104.5 38t41.5 115t-41.5 115t-104.5 38
h-391v-134h391q6 0 9 -6.5t3 -12.5t-3 -12.5t-9 -6.5h-391v-638z" />
    <glyph glyph-name=".0113" unicode="q" horiz-adv-x="734" 
d="M684 133h-420q-38 0 -64 10.5t-42.5 29.5t-24 45t-7.5 56v433q0 30 7.5 56t24 45t43 29.5t64.5 10.5h154q38 0 64.5 -10.5t43 -29.5t24 -45t7.5 -56v-370h126v342q0 83 -16 140.5t-50 93.5t-86.5 52t-125.5 16h-128q-72 0 -124 -16t-86.5 -52t-51 -93.5t-16.5 -140.5
v-377q0 -80 16.5 -137.5t51 -94t86.5 -53.5t124 -17h406v133zM684 302h-374q-12 0 -15.5 7t-3.5 19v325q0 12 3.5 19t15.5 7h64q12 0 15.5 -7t3.5 -19v-316h129v350q0 26 -5 49t-18 40t-35.5 26.5t-57.5 9.5h-128q-35 0 -57.5 -9.5t-35.5 -26.5t-18 -40t-5 -49v-393
q0 -35 5 -58.5t17.5 -38.5t35 -21.5t57.5 -6.5h407v133z" />
    <glyph glyph-name=".0114" unicode="r" 
d="M0 0h133v676h253q8 0 12.5 -5.5t4.5 -12.5t-4.5 -13t-12.5 -6h-217v-639h133v343l198 -343h143l-285 501h33q31 0 58 12t46.5 33t30.5 49.5t11 61.5q0 77 -41.5 115t-104.5 38h-391v-810zM692 0h136l-228 408q50 38 79 100.5t29 148.5q0 68 -24.5 127t-67.5 103t-101 69
t-124 25h-391v-135h391q42 0 75.5 -14t57.5 -39t37 -60t13 -76q0 -40 -13 -73.5t-34 -58.5t-48.5 -40t-56.5 -17z" />
    <glyph glyph-name="s" unicode="s" horiz-adv-x="696" 
d="M333 678q-8 0 -12.5 -5t-4.5 -12q0 -6 3 -11.5t9 -6.5q3 -1 23.5 -5.5l46.5 -10.5t52.5 -13.5t40.5 -14.5q30 -17 59 -41t52 -57.5t37 -78t14 -101.5q0 -68 -24.5 -126.5t-66.5 -101.5t-99.5 -68t-123.5 -25h-339v133h339q42 0 76.5 14t59.5 39t38.5 59.5t13.5 75.5
q0 52 -19 85t-47 52.5t-60.5 29t-59.5 15.5q-30 6 -58.5 16.5t-50.5 28.5t-35.5 45t-13.5 67q0 38 11 66.5t30.5 47.5t46 28.5t57.5 9.5h331v-133zM328 848q-41 0 -74.5 -14t-57 -39t-36.5 -59.5t-13 -75.5q0 -43 15 -75t38.5 -55t52.5 -36.5t57 -18.5q27 -5 59 -13.5
t59 -25t45 -44.5t18 -71q0 -38 -12 -66.5t-33 -47.5t-48.5 -28.5t-58.5 -9.5h-339v133h327q8 0 12.5 5.5t4.5 11.5q0 14 -12 19q-3 1 -24 5t-47.5 10t-52.5 13.5t-40 15.5q-29 16 -57 40t-49.5 57.5t-34.5 78t-13 102.5q0 67 24.5 126t66.5 102t99.5 68t123.5 25h331v-133
h-331z" />
    <glyph glyph-name=".0116" unicode="t" horiz-adv-x="724" 
d="M0 981v-133h684v133h-684zM0 812v-133h192v-679h133v812h-325zM361 0h133v679h190v133h-323v-812z" />
    <glyph glyph-name=".0117" unicode="u" horiz-adv-x="741" 
d="M264 133q-38 0 -64 10.5t-42.5 29.5t-24 45t-7.5 56v707h-126v-679q0 -160 67.5 -231t210.5 -71h128q73 0 125.5 17t86.5 53.5t50 94t16 137.5v679h-126v-707q0 -30 -7.5 -56t-24 -45t-42.5 -29.5t-64 -10.5h-156zM310 302q-12 0 -15.5 7t-3.5 19v653h-129v-687
q0 -35 5 -58.5t17.5 -38.5t35 -21.5t57.5 -6.5h130q35 0 57.5 6.5t35 21.5t17.5 38.5t5 58.5v687h-129v-653q0 -12 -4 -19t-15 -7h-64z" />
    <glyph glyph-name="v" unicode="v" horiz-adv-x="851" 
d="M753 981h133l-309 -872q-8 -21 -21 -40.5t-32 -35t-45.5 -24.5t-60.5 -9q-33 0 -59.5 9t-46 24.5t-33 35t-20.5 40.5l-309 872h133l288 -822q3 -10 18 -18t29 -8q16 0 29.5 8t16.5 18zM584 981h133l-275 -797q-2 -6 -9.5 -10.5t-14.5 -4.5t-15 4.5t-10 10.5l-274 797h128
l171 -513z" />
    <glyph glyph-name="w" unicode="w" horiz-adv-x="1058" 
d="M465 542l143 -383q4 -10 17 -18t29 -8q14 0 29 8t18 18l288 822h133l-309 -872q-8 -21 -21 -40.5t-32.5 -35t-45.5 -24.5t-60 -9t-59 9t-44 24.5t-32.5 35t-23.5 40.5l-30 60l-30 -60q-11 -21 -24.5 -40.5t-32 -35t-43.5 -24.5t-59 -9q-33 0 -59.5 9t-46 24.5t-33 35
t-20.5 40.5l-309 872h133l288 -822q3 -10 18 -18t29 -8q16 0 29 8t17 18zM465 981l189 -504l166 504h133l-274 -797q-2 -6 -10 -10.5t-15 -4.5t-14.5 4.5t-9.5 10.5l-165 455l-165 -455q-2 -6 -9.5 -10.5t-14.5 -4.5t-15 4.5t-10 10.5l-274 797h128l171 -504z" />
    <glyph glyph-name=".0120" unicode="x" horiz-adv-x="788" 
d="M816 0l-537 981h-134l538 -981h133zM647 0l-538 981h-133l538 -981h133zM380 183l-101 -183h-134l167 306zM294 340l-185 -340h-133l250 464zM411 803l102 178h134l-167 -306zM498 641l185 340h133l-250 -464z" />
    <glyph glyph-name=".0121" unicode="y" horiz-adv-x="731" 
d="M361 0h133v349q99 19 144.5 90t45.5 205v337h-126v-365q0 -30 -7.5 -56t-24 -45t-42.5 -29.5t-64 -10.5h-59v-475zM325 0v475h-61q-38 0 -64 10.5t-42.5 29.5t-24 45t-7.5 56v365h-126v-337q0 -134 46.5 -205t145.5 -90v-349h133zM310 644q-12 0 -15.5 7t-3.5 19v311
h-129v-345q0 -35 5 -58.5t17.5 -38.5t35 -21.5t57.5 -6.5h130q35 0 57.5 6.5t35 21.5t17.5 38.5t5 58.5v345h-129v-311q0 -12 -4 -19t-15 -7h-64z" />
    <glyph glyph-name=".0122" unicode="z" horiz-adv-x="737" 
d="M52 304q-8 -12 -17 -28t-17 -34.5t-13 -40t-5 -43.5q0 -31 13 -59.5t35.5 -50.5t51 -35t60.5 -13h522v125h-511q-17 0 -30 8.5t-16 22.5q-5 14 1 30t16 30l376 563q3 5 7 14t1 15q-1 6 -9 10.5t-13 4.5h-504v-124h330zM165 201q-4 -5 -6 -14t1 -15q1 -6 7.5 -10.5
t13.5 -4.5h501v124h-322l275 395l15.5 23t17.5 31.5t14 38t6 42.5q0 33 -13.5 64t-36 54.5t-51.5 37.5t-61 14h-526v-126h515q17 0 30 -8.5t16 -22.5q5 -14 -1 -30t-16 -30z" />
    <glyph glyph-name=".null" unicode="&#xe000;" horiz-adv-x="23" 
 />
    <glyph glyph-name="A" unicode="A" horiz-adv-x="851" 
d="M304 117h415l-254 705q-3 10 -18 18t-29 8q-16 0 -29.5 -8t-16.5 -18l-289 -822h-133l309 872q7 21 20 40.5t32.5 35t46 24.5t60.5 9t60 -9t45.5 -24.5t32.5 -35t21 -40.5l309 -872h-582v117zM304 153v38l-64 -191h-121l275 797q2 6 9.5 10.5t14.5 4.5t15 -4.5t10 -10.5
l228 -644h-367zM418 524l-80 -252h163z" />
    <glyph glyph-name="B" unicode="B" horiz-adv-x="753" 
d="M0 846v135h391q66 0 124 -25t101 -69t67.5 -103t24.5 -127q0 -46 -18 -89t-45 -78q27 -37 45 -79t18 -87q0 -68 -24.5 -127t-67.5 -103t-101 -69t-124 -25h-391v135h391q42 0 75.5 14t57.5 39t37 60t13 76q0 58 -24 97t-69 69q45 31 69 70t24 97q0 41 -13 76t-37 60
t-57.5 39t-75.5 14h-391zM391 638q6 0 9 6.5t3 12.5t-3 12.5t-9 6.5h-391v134h391q63 0 104.5 -38t41.5 -115t-41.5 -115t-104.5 -38h-391v134h391zM391 305q6 0 9 6.5t3 12.5t-3 12.5t-9 6.5h-391v134h391q63 0 104.5 -38t41.5 -115t-41.5 -115t-104.5 -38h-391v134h391z
" />
    <glyph glyph-name="C" unicode="C" horiz-adv-x="696" 
d="M657 0h-379q-54 0 -104.5 23.5t-89 64t-61.5 96t-23 118.5v377q0 63 23 118.5t61.5 96t89 64t104.5 23.5h379v-133h-363q-38 0 -68 -15t-50.5 -39t-31.5 -54.5t-11 -60.5v-377q0 -30 11 -60.5t31.5 -54.5t50.5 -39t68 -15h363v-133zM325 302h332v-133h-350q-35 0 -61 14
t-43 36t-25.5 49.5t-8.5 53.5v337q0 26 8.5 53.5t25.5 49.5t43 36t61 14h350v-133h-332q-6 0 -12.5 -7t-6.5 -19v-325q0 -26 13 -26h6z" />
    <glyph glyph-name="D" unicode="D" horiz-adv-x="701" 
d="M399 133q38 0 64 10.5t42.5 29.5t24 45t7.5 56v433q0 30 -7.5 56t-24 45t-43 29.5t-64.5 10.5h-398v133h385q73 0 125.5 -16t86.5 -52t50 -93.5t16 -140.5v-377q0 -80 -16 -137.5t-50 -94t-86.5 -53.5t-125.5 -17h-385v647h126v-514h273zM0 679v133h385q35 0 57.5 -9.5
t35.5 -26.5t18 -40t5 -49v-393q0 -35 -5 -58.5t-17.5 -38.5t-35 -21.5t-57.5 -6.5h-224v478h140v-319q0 -26 25 -26h22q12 0 19.5 7t7.5 19v325q0 12 -7.5 19t-19.5 7h-349z" />
    <glyph glyph-name="E" unicode="E" horiz-adv-x="700" 
d="M0 679q0 63 23 118.5t61.5 96t89 64t104.5 23.5h379v-133h-363q-38 0 -68 -15t-50.5 -39t-31.5 -54.5t-11 -60.5v-377q0 -30 11 -60.5t31.5 -54.5t50.5 -39t68 -15h363v-133h-379q-54 0 -104.5 23.5t-89 64t-61.5 96t-23 118.5v377zM169 507v152q0 26 8.5 53.5t25.5 49.5
t43 36t61 14h350v-133h-347q-6 0 -12.5 -7t-6.5 -19v-14h290v-132h-412zM169 474h412v-133h-290v-13q0 -12 6.5 -19t12.5 -7h347v-133h-350q-35 0 -61 14t-43 36t-25.5 49.5t-8.5 53.5v152z" />
    <glyph glyph-name="F" unicode="F" horiz-adv-x="699" 
d="M0 679q0 63 23 118.5t61.5 96t89 64t104.5 23.5h379v-133h-363q-38 0 -68 -15t-50.5 -39t-31.5 -54.5t-11 -60.5v-679h-133v679zM169 507v152q0 26 8.5 53.5t25.5 49.5t43 36t61 14h350v-133h-347q-6 0 -12.5 -7t-6.5 -19v-14h290v-132h-412zM169 474h412v-133h-290v-341
h-122v474z" />
    <glyph glyph-name="G" unicode="G" 
d="M728 0h-450q-54 0 -104.5 23.5t-89 64t-61.5 96t-23 118.5v377q0 63 23 118.5t61.5 96t89 64t104.5 23.5h450v-133h-434q-38 0 -68 -15t-50.5 -39t-31.5 -54.5t-11 -60.5v-377q0 -30 11 -60.5t31.5 -54.5t50.5 -39t68 -15h322v374h-298v132h410v-639zM310 302h110
q7 0 10.5 6t3.5 13q0 8 -3.5 14t-10.5 6h-102v133h263v-305h-274q-35 0 -61 14t-43 36t-25.5 49.5t-8.5 53.5v337q0 26 8.5 53.5t25.5 49.5t43 36t61 14h421v-133h-418q-6 0 -12.5 -7t-6.5 -19v-325q0 -12 6.5 -19t12.5 -7z" />
    <glyph glyph-name="H" unicode="H" 
d="M556 474v-474h-133v341h-121v-341h-133v474h387zM169 981h133v-338h121v338h133v-471h-387v471zM592 981h133v-981h-133v981zM0 981h133v-981h-133v981z" />
    <glyph glyph-name="I" unicode="I" horiz-adv-x="450" 
d="M50 0v981h133v-981h-133zM219 0v981h133v-981h-133z" />
    <glyph glyph-name="J" unicode="J" horiz-adv-x="741" 
d="M684 981v-679q0 -80 -16 -137.5t-50 -94t-86.5 -53.5t-125.5 -17h-128q-72 0 -124 17t-86.5 53.5t-51 94t-16.5 137.5v337h364v-132h-238v-233q0 -30 7.5 -56t24 -45t42.5 -29.5t64 -10.5h156q38 0 64 10.5t42.5 29.5t24 45t7.5 56v707h126zM522 981v-687q0 -35 -5 -58.5
t-17.5 -38.5t-35 -21.5t-57.5 -6.5h-130q-35 0 -57.5 6.5t-35 21.5t-17.5 38.5t-5 58.5v180h202v-133h-73v-13q0 -12 3.5 -19t15.5 -7h64q12 0 15.5 7t3.5 19v653h129z" />
    <glyph glyph-name="K" unicode="K" horiz-adv-x="750" 
d="M0 981h133v-981h-133v981zM344 490l326 491h127l-326 -491l326 -490h-127zM169 507v474h133v-291l193 291h130l-315 -474h-141zM169 471h141l315 -471h-130l-193 290v-290h-133v471z" />
    <glyph glyph-name="L" unicode="L" horiz-adv-x="699" 
d="M657 0h-379q-54 0 -104.5 23.5t-89 64t-61.5 96t-23 118.5v679h133v-679q0 -30 11 -60.5t31.5 -54.5t50.5 -39t68 -15h363v-133zM325 302h332v-133h-350q-35 0 -61 14t-43 36t-25.5 49.5t-8.5 53.5v659h137v-653q0 -12 6.5 -18.5t12.5 -6.5v-1z" />
    <glyph glyph-name="M" unicode="M" horiz-adv-x="1171" 
d="M567 439l-143 383q-4 10 -17 18t-29 8q-14 0 -29 -8t-18 -18l-288 -822h-133l309 872q8 21 21 40.5t32.5 35t45.5 24.5t60 9t59 -9t44 -24.5t32.5 -35t23.5 -40.5l30 -60l30 60q11 21 24.5 40.5t32 35t43.5 24.5t59 9q33 0 59.5 -9t46 -24.5t33 -35t20.5 -40.5l309 -872
h-133l-288 822q-3 10 -18 18t-29 8q-16 0 -29 -8t-17 -18zM567 0l-189 504l-166 -504h-133l274 797q2 6 10 10.5t15 4.5t14.5 -4.5t9.5 -10.5l165 -455l165 455q2 6 9.5 10.5t14.5 4.5t15 -4.5t10 -10.5l274 -797h-128l-171 504z" />
    <glyph glyph-name="N" unicode="N" horiz-adv-x="729" 
d="M551 0v707q0 30 -7.5 56t-24 45t-43 29.5t-64.5 10.5h-412v133h399q73 0 125.5 -16t86.5 -52t50 -93.5t16 -140.5v-679h-126zM0 679v133h399q35 0 57.5 -9.5t35.5 -26.5t18 -40t5 -49v-687h-125v653q0 12 -7.5 19t-19.5 7h-363zM302 0h-140v647h140v-647zM0 0v647h126
v-647h-126z" />
    <glyph glyph-name="O" unicode="O" horiz-adv-x="727" 
d="M278 0q-72 0 -124 17t-86.5 53.5t-51 94t-16.5 137.5v377q0 83 16.5 140.5t51 93.5t86.5 52t124 16h128q73 0 125.5 -16t86.5 -52t50 -93.5t16 -140.5v-377q0 -80 -16 -137.5t-50 -94t-86.5 -53.5t-125.5 -17h-128zM420 133q38 0 64 10.5t42.5 29.5t24 45t7.5 56v433
q0 30 -7.5 56t-24 45t-43 29.5t-64.5 10.5h-154q-38 0 -64.5 -10.5t-43 -29.5t-24 -45t-7.5 -56v-433q0 -30 7.5 -56t24 -45t42.5 -29.5t64 -10.5h78h78zM277 169q-35 0 -57.5 6.5t-35 21.5t-17.5 38.5t-5 58.5v393q0 26 5 49t18 40t35.5 26.5t57.5 9.5h64h64
q35 0 57.5 -9.5t35.5 -26.5t18 -40t5 -49v-393q0 -35 -5 -58.5t-17.5 -38.5t-35 -21.5t-57.5 -6.5h-130zM374 302q12 0 15.5 7t3.5 19v325q0 12 -3.5 19t-15.5 7h-64q-12 0 -15.5 -7t-3.5 -19v-325q0 -12 3.5 -19t15.5 -7h64z" />
    <glyph glyph-name="P" unicode="P" horiz-adv-x="713" 
d="M169 468h222q42 0 75.5 14t57.5 39t37 60t13 76t-13 76t-37 60t-57.5 39t-75.5 14h-391v135h391q66 0 124 -25t101 -69t67.5 -103t24.5 -127t-25 -127t-67.5 -103t-100.5 -69t-124 -25h-89v-333h-133v468zM0 638h391q6 0 9 6.5t3 12.5t-3 12.5t-9 6.5h-391v134h391
q63 0 104.5 -38t41.5 -115t-41.5 -115t-104.5 -38h-258v-504h-133v638z" />
    <glyph glyph-name="Q" unicode="Q" horiz-adv-x="734" 
d="M684 0h-406q-72 0 -124 17t-86.5 53.5t-51 94t-16.5 137.5v377q0 83 16.5 140.5t51 93.5t86.5 52t124 16h128q73 0 125.5 -16t86.5 -52t50 -93.5t16 -140.5v-342h-126v370q0 30 -7.5 56t-24 45t-43 29.5t-64.5 10.5h-154q-38 0 -64.5 -10.5t-43 -29.5t-24 -45t-7.5 -56
v-433q0 -30 7.5 -56t24 -45t42.5 -29.5t64 -10.5h420v-133zM684 169h-407q-35 0 -57.5 6.5t-35 21.5t-17.5 38.5t-5 58.5v393q0 26 5 49t18 40t35.5 26.5t57.5 9.5h128q35 0 57.5 -9.5t35.5 -26.5t18 -40t5 -49v-350h-129v316q0 12 -3.5 19t-15.5 7h-64q-12 0 -15.5 -7
t-3.5 -19v-325q0 -12 3.5 -19t15.5 -7h374v-133z" />
    <glyph glyph-name="R" unicode="R" 
d="M0 810h391q63 0 104.5 -38t41.5 -115q0 -33 -11 -61.5t-30.5 -49.5t-46.5 -33t-58 -12h-33l285 -501h-143l-198 343v-343h-133v639h217q8 0 12.5 6t4.5 13t-4.5 12.5t-12.5 5.5h-253v-676h-133v810zM422 468q29 2 56.5 17t48.5 40t34 58.5t13 73.5q0 41 -13 76t-37 60
t-57.5 39t-75.5 14h-391v135h391q66 0 124 -25t101 -69t67.5 -103t24.5 -127q0 -86 -29 -148.5t-79 -100.5l228 -408h-136z" />
    <glyph glyph-name="S" unicode="S" horiz-adv-x="696" 
d="M333 678q-8 0 -12.5 -5t-4.5 -12q0 -6 3 -11.5t9 -6.5q3 -1 23.5 -5.5l46.5 -10.5t52.5 -13.5t40.5 -14.5q30 -17 59 -41t52 -57.5t37 -78t14 -101.5q0 -68 -24.5 -126.5t-66.5 -101.5t-99.5 -68t-123.5 -25h-339v133h339q42 0 76.5 14t59.5 39t38.5 59.5t13.5 75.5
q0 52 -19 85t-47 52.5t-60.5 29t-59.5 15.5q-30 6 -58.5 16.5t-50.5 28.5t-35.5 45t-13.5 67q0 38 11 66.5t30.5 47.5t46 28.5t57.5 9.5h331v-133zM328 848q-41 0 -74.5 -14t-57 -39t-36.5 -59.5t-13 -75.5q0 -43 15 -75t38.5 -55t52.5 -36.5t57 -18.5q27 -5 59 -13.5
t59 -25t45 -44.5t18 -71q0 -38 -12 -66.5t-33 -47.5t-48.5 -28.5t-58.5 -9.5h-339v133h327q8 0 12.5 5.5t4.5 11.5q0 14 -12 19q-3 1 -24 5t-47.5 10t-52.5 13.5t-40 15.5q-29 16 -57 40t-49.5 57.5t-34.5 78t-13 102.5q0 67 24.5 126t66.5 102t99.5 68t123.5 25h331v-133
h-331z" />
    <glyph glyph-name="T" unicode="T" horiz-adv-x="724" 
d="M684 981v-133h-684v133h684zM325 812v-812h-133v679h-192v133h325zM361 812h323v-133h-190v-679h-133v812z" />
    <glyph glyph-name="U" unicode="U" horiz-adv-x="741" 
d="M420 133q38 0 64 10.5t42.5 29.5t24 45t7.5 56v707h126v-679q0 -80 -16 -137.5t-50 -94t-86.5 -53.5t-125.5 -17h-128q-143 0 -210.5 71t-67.5 231v679h126v-707q0 -30 7.5 -56t24 -45t42.5 -29.5t64 -10.5h156zM374 302q11 0 15 7t4 19v653h129v-687q0 -35 -5 -58.5
t-17.5 -38.5t-35 -21.5t-57.5 -6.5h-130q-35 0 -57.5 6.5t-35 21.5t-17.5 38.5t-5 58.5v687h129v-653q0 -12 3.5 -19t15.5 -7h64z" />
    <glyph glyph-name="V" unicode="V" horiz-adv-x="851" 
d="M753 981h133l-309 -872q-8 -21 -21 -40.5t-32 -35t-45.5 -24.5t-60.5 -9q-33 0 -59.5 9t-46 24.5t-33 35t-20.5 40.5l-309 872h133l288 -822q3 -10 18 -18t29 -8q16 0 29.5 8t16.5 18zM584 981h133l-275 -797q-2 -6 -9.5 -10.5t-14.5 -4.5t-15 4.5t-10 10.5l-274 797h128
l171 -513z" />
    <glyph glyph-name="W" unicode="W" horiz-adv-x="1058" 
d="M465 542l143 -383q4 -10 17 -18t29 -8q14 0 29 8t18 18l288 822h133l-309 -872q-8 -21 -21 -40.5t-32.5 -35t-45.5 -24.5t-60 -9t-59 9t-44 24.5t-32.5 35t-23.5 40.5l-30 60l-30 -60q-11 -21 -24.5 -40.5t-32 -35t-43.5 -24.5t-59 -9q-33 0 -59.5 9t-46 24.5t-33 35
t-20.5 40.5l-309 872h133l288 -822q3 -10 18 -18t29 -8q16 0 29 8t17 18zM465 981l189 -504l166 504h133l-274 -797q-2 -6 -10 -10.5t-15 -4.5t-14.5 4.5t-9.5 10.5l-165 455l-165 -455q-2 -6 -9.5 -10.5t-14.5 -4.5t-15 4.5t-10 10.5l-274 797h128l171 -504z" />
    <glyph glyph-name="X" unicode="X" horiz-adv-x="788" 
d="M683 0l-538 981h134l537 -981h-133zM514 0l-538 981h133l538 -981h-133zM380 183l-101 -183h-134l167 306zM294 340l-185 -340h-133l250 464zM411 803l102 178h134l-167 -306zM498 641l185 340h133l-250 -464z" />
    <glyph glyph-name="Y" unicode="Y" horiz-adv-x="731" 
d="M361 475h59q38 0 64 10.5t42.5 29.5t24 45t7.5 56v365h126v-337q0 -134 -45.5 -205t-144.5 -90v-349h-133v475zM192 0v349q-99 19 -145.5 90t-46.5 205v337h126v-365q0 -30 7.5 -56t24 -45t42.5 -29.5t64 -10.5h61v-475h-133zM374 644q11 0 15 7t4 19v311h129v-345
q0 -35 -5 -58.5t-17.5 -38.5t-35 -21.5t-57.5 -6.5h-130q-35 0 -57.5 6.5t-35 21.5t-17.5 38.5t-5 58.5v345h129v-311q0 -12 3.5 -19t15.5 -7h64z" />
    <glyph glyph-name="Z" unicode="Z" horiz-adv-x="737" 
d="M330 699h-330v124h504q5 0 13 -4.5t9 -10.5q3 -6 -1 -15t-7 -14l-376 -563q-10 -14 -16 -30t-1 -30q3 -14 16 -22.5t30 -8.5h511v-125h-522q-32 0 -60.5 13t-51 35t-35.5 50.5t-13 59.5q0 22 5 43.5t13 40t17 34.5t17 28zM544 764q10 14 16 30t1 30q-3 14 -16 22.5
t-30 8.5h-515v126h526q32 0 61 -14t51.5 -37.5t36 -54.5t13.5 -64q0 -22 -6 -42.5t-14 -38t-17.5 -31.5l-15.5 -23l-275 -395h322v-124h-501q-7 0 -13.5 4.5t-7.5 10.5q-3 6 -1 15t6 14z" />
  </font>
</defs>
</svg>
