<?xml version="1.0" encoding="UTF-8"?>
<svg width="100px" height="100px" viewBox="0 0 100 100" version="1.1" xmlns="http://www.w3.org/2000/svg" xmlns:xlink="http://www.w3.org/1999/xlink">
    <!-- Generator: Sketch 50.2 (55047) - http://www.bohemiancoding.com/sketch -->
    <title>Fill 2</title>
    <desc>Created with Sketch.</desc>
    <defs></defs>
    <g id="Page-1" stroke="none" stroke-width="1" fill="none" fill-rule="evenodd">
        <g id="Acme-Logo-#2" transform="translate(-200.000000, -310.000000)" fill="#FEFEFE">
            <g id="On-Dark-Background" transform="translate(200.000000, 310.000000)">
                <path d="M83.275,72.0536 C83.692,69.9326 83.913,67.7416 83.913,65.5006 C83.913,59.8926 82.543,54.5986 80.123,49.9336 C82.543,45.2696 83.913,39.9756 83.913,34.3676 C83.913,32.1256 83.692,29.9356 83.275,27.8146 C89.758,33.0146 93.92,40.9956 93.92,49.9336 C93.92,58.8726 89.758,66.8526 83.275,72.0536 M50,93.8536 C41.061,93.8536 33.081,89.6916 27.88,83.2086 C30.001,83.6256 32.192,83.8466 34.433,83.8466 C40.042,83.8466 45.335,82.4766 50,80.0566 C54.665,82.4766 59.958,83.8466 65.567,83.8466 C67.808,83.8466 69.999,83.6256 72.12,83.2086 C66.919,89.6916 58.939,93.8536 50,93.8536 M6.08,49.9336 C6.08,40.9956 10.242,33.0146 16.725,27.8146 C16.308,29.9356 16.087,32.1256 16.087,34.3676 C16.087,39.9756 17.457,45.2696 19.877,49.9336 C17.457,54.5986 16.087,59.8926 16.087,65.5006 C16.087,67.7416 16.308,69.9326 16.725,72.0536 C10.242,66.8526 6.08,58.8726 6.08,49.9336 M67.708,56.4866 C68.125,54.3656 68.346,52.1756 68.346,49.9336 C68.346,47.6926 68.125,45.5016 67.709,43.3806 C70.024,45.2386 72.042,47.4496 73.681,49.9336 C72.042,52.4186 70.024,54.6296 67.708,56.4866 M43.447,67.6426 C45.568,68.0596 47.759,68.2806 50,68.2806 C52.241,68.2806 54.432,68.0596 56.553,67.6426 C54.696,69.9576 52.485,71.9766 50,73.6146 C47.515,71.9766 45.304,69.9576 43.447,67.6426 M32.292,43.3806 C31.875,45.5016 31.654,47.6926 31.654,49.9336 C31.654,52.1756 31.875,54.3656 32.292,56.4866 C29.976,54.6296 27.958,52.4186 26.319,49.9336 C27.958,47.4496 29.976,45.2386 32.292,43.3806 M62.787,49.9336 C62.787,53.7146 62.037,57.3216 60.688,60.6226 C57.387,61.9716 53.78,62.7206 50,62.7206 C46.22,62.7206 42.613,61.9716 39.312,60.6226 C37.963,57.3216 37.213,53.7146 37.213,49.9336 C37.213,46.1536 37.963,42.5466 39.312,39.2456 C42.613,37.8966 46.22,37.1476 50,37.1476 C53.78,37.1476 57.387,37.8966 60.688,39.2456 C62.037,42.5466 62.787,46.1536 62.787,49.9336 M56.553,32.2256 C54.432,31.8086 52.241,31.5876 50,31.5876 C47.759,31.5876 45.568,31.8086 43.447,32.2256 C45.304,29.9096 47.515,27.8916 50,26.2526 C52.485,27.8916 54.696,29.9096 56.553,32.2256 M21.647,34.3676 C21.647,30.5866 22.396,26.9796 23.745,23.6786 C27.046,22.3306 30.653,21.5806 34.433,21.5806 C37.96,21.5806 41.336,22.2336 44.454,23.4146 C40.541,26.5366 37.332,30.5046 35.105,35.0396 C30.571,37.2656 26.603,40.4746 23.481,44.3876 C22.299,41.2706 21.647,37.8946 21.647,34.3676 M21.647,65.5006 C21.647,61.9736 22.299,58.5976 23.481,55.4806 C26.603,59.3936 30.571,62.6026 35.105,64.8286 C37.332,69.3636 40.541,73.3306 44.454,76.4526 C41.336,77.6346 37.96,78.2876 34.433,78.2876 C30.653,78.2876 27.046,77.5376 23.745,76.1886 C22.396,72.8876 21.647,69.2806 21.647,65.5006 M78.353,65.5006 C78.353,69.2806 77.604,72.8876 76.255,76.1886 C72.954,77.5376 69.347,78.2876 65.567,78.2876 C62.04,78.2876 58.664,77.6346 55.546,76.4526 C59.459,73.3306 62.668,69.3636 64.895,64.8286 C69.429,62.6026 73.397,59.3936 76.519,55.4806 C77.701,58.5976 78.353,61.9736 78.353,65.5006 M78.353,34.3676 C78.353,37.8946 77.701,41.2706 76.519,44.3876 C73.397,40.4746 69.429,37.2656 64.895,35.0396 C62.668,30.5046 59.459,26.5366 55.546,23.4146 C58.664,22.2336 62.04,21.5806 65.567,21.5806 C69.347,21.5806 72.954,22.3306 76.255,23.6786 C77.604,26.9796 78.353,30.5866 78.353,34.3676 M50,6.0146 C58.939,6.0146 66.919,10.1756 72.12,16.6586 C69.999,16.2416 67.808,16.0216 65.567,16.0216 C59.958,16.0216 54.665,17.3906 50,19.8116 C45.335,17.3906 40.042,16.0216 34.433,16.0216 C32.192,16.0216 30.001,16.2416 27.88,16.6586 C33.081,10.1756 41.061,6.0146 50,6.0146 M99.479,49.9336 C99.479,36.5756 91.714,24.9976 80.461,19.4726 C74.937,8.2196 63.359,0.4546 50,0.4546 C36.641,0.4546 25.063,8.2196 19.539,19.4726 C8.286,24.9976 0.521,36.5756 0.521,49.9336 C0.521,63.2926 8.286,74.8706 19.539,80.3956 C25.063,91.6476 36.641,99.4136 50,99.4136 C63.359,99.4136 74.937,91.6476 80.461,80.3956 C91.714,74.8706 99.479,63.2926 99.479,49.9336" id="Fill-2"></path>
            </g>
        </g>
    </g>
</svg>